<svg xmlns="http://www.w3.org/2000/svg" width="54.951" height="59.564" viewBox="0 0 54.951 59.564"><defs><style>.a{fill:#ef4e37;fill-rule:evenodd;}</style></defs><g transform="translate(0 0)"><path class="a" d="M3047.605,4710.533c-.993-.175-1.694-.1-2.278-.832-.555-.716-2.073-4.628-2.817-5.854l-.657-.059a2.97,2.97,0,0,0-1.533.38l-.161.117c4.6,4.8,6.307,4.467,1.65,8.555-1.5,1.314-2.584-.686-3.314-1.109-.935.569-1.9,2.073-2.832,2.686-.876.569-3.767.818-4.453.19-.73-.672-.438-3.679.1-4.54.569-.891,2.307-2.015,2.671-2.892-.321-.423-1.255-1.182-1.416-1.692a1.534,1.534,0,0,1,.54-1.767l.233-.38c.059-.613.117-.32-.934-1.24a5.307,5.307,0,0,1-1.007-1.052,16.331,16.331,0,0,1-4.219-.044c-1.27.029-1.445,2.613-1.62,3.956,1.2,1.14.584.132,1.766,2.219a9.249,9.249,0,0,1,1.271,2.613c.073,1.008-.759,2.074-1.2,2.833-1.562,2.729-1.183,2.395-5.445,2.395a2.331,2.331,0,0,1-2.511-1.329c-2.861-4.759-1.708-3.475-1.2-5.532-3.139-.059-2.526-.1-4.584,2.832-2,2.847-1.109,1.81-4.7,2.759a8.2,8.2,0,0,0-.453,2.584l42.322-.029a39.656,39.656,0,0,0,.015-4.569c-.131-.715-.613-.817-1.445-.847a10.4,10.4,0,0,1-1.781-.365Z" transform="translate(-3001.732 -4656.765)"/><path class="a" d="M2545.821,1949.292a26.208,26.208,0,0,0,1.752,10.511l1.007,2.438c-.744-.365-4.088-1.664-3.8.234.161,1.036,1.708,1.066,3.081,1.577,4.175,1.576,3.941-.7,4.993-4.57.19-.7,0-1.518-.832-1.518-1.446,0-1.008,1.84-1.65,3.168-.54-.394-1.635-4.073-1.8-4.686a23.848,23.848,0,0,1,.132-12.964,24.774,24.774,0,0,1,6.993-11.475c.8-.8,2.54-1.679,1.562-2.73-.248-.263-.38-.277-.832-.277-.671,0-3.591,3.008-4.073,3.65a29.611,29.611,0,0,0-3.183,4.54,26.817,26.817,0,0,0-1.241,2.613,25.193,25.193,0,0,0-2.1,9.475Z" transform="translate(-2544.766 -1925.234)"/><path class="a" d="M5579,2009.314c1.446.978,3.913,5.329,4.555,6.759a25.37,25.37,0,0,1,1.679,14.5,23.223,23.223,0,0,1-2,6.278,15.387,15.387,0,0,0-1.474,3.08,1.007,1.007,0,0,0,.963.832c1.022,0,1.781-2.044,2.351-3.168a28.187,28.187,0,0,0,2.423-8.745c.847-5.912-1.255-13.489-4.949-18.38l-1.883-2.379c1.913,0,3.445.409,3.445-1.109,0-.92-1.445-.818-1.8-.832-.818-.015-1.022-.146-2.614-.146-1.255,0-2.379.336-2.7,1.84l.073,3.679c0,.745.073,1.08.526,1.416.5.365,1.751.336,1.445-1.737a13.711,13.711,0,0,1-.044-1.9Z" transform="translate(-5532.732 -2001.109)"/><path class="a" d="M3938.415,2857.292h2.526l-.029-6.2h-6.5a52.436,52.436,0,0,1-6.482-.088c-.292.073-.292-.263-.277,1.314.015,1.007-.161,4.817.161,5.11a25.319,25.319,0,0,0,4.613.073c.1-.8-.526-4.861,2.963-4.92,3.519-.044,2.963,3.957,3.037,4.7Z" transform="translate(-3907.433 -2833.773)"/><path class="a" d="M4307,1675.745l.059,2.365c.6.438.876.219.935,1.226.1,1.971-.146,4.745.029,6.862l2.5.015.015-15.183-2.5-.029a18.292,18.292,0,0,0-.043,2.832C4308.007,1675.073,4308.109,1675.526,4307,1675.745Z" transform="translate(-4281.273 -1671)"/><path class="a" d="M3765.942,5103.365l3.212-.015c1.606-3.913,2.745-1.664-.088-6.335L3765.4,5097c-.335.482-1.839,2.89-1.737,3.343a19.206,19.206,0,0,0,.949,1.679C3764.979,5102.636,3765.1,5103.365,3765.942,5103.365Z" transform="translate(-3745.865 -5046.985)"/><path class="a" d="M5117.722,3046c-.131,3.373-.161,2.453.963,4.219a9.366,9.366,0,0,1,.526,8.614c-.277.6-.8,1.212-.511,1.956a1.125,1.125,0,0,0,1.8.292,10.554,10.554,0,0,0,1.518-3.723c.919-4.614-1.416-9.986-4.307-11.358Z" transform="translate(-5080.097 -3025.927)"/><path class="a" d="M3496.386,3051.569V3049c-1.431.409-3.489,3.767-4.073,5.737a11.672,11.672,0,0,0,.759,8.5c1.007,1.985,2.613,1.109,2.38-.175-.117-.643-3.08-4.774-.029-9.9.292-.5.978-1.109.978-1.591Z" transform="translate(-3478.018 -3028.883)"/><path class="a" d="M4383.558,3087.491c-1.183.409-.833,1.9-.833,3.329v8.278c0,1.168-.189,2.978,1.431,2.6,1.125-.263.8-2.132.8-3.431s.175-9.621-.131-10.263a1.064,1.064,0,0,0-1.255-.511Z" transform="translate(-4355.846 -3066.761)"/><path class="a" d="M4789,4850.767l6.2,6.263a8.464,8.464,0,0,0,1.854-1.825,80.79,80.79,0,0,0-6.248-6.2l-1.8,1.766Z" transform="translate(-4756.237 -4802.605)"/><path class="a" d="M3959.482,2844.559c.1.234-.176.277,1.08.263a31.1,31.1,0,0,0,3.606-.1,42,42,0,0,0,0-6.5c-1.007-.248-10.818-.1-13.387-.1l-1.693.117a.451.451,0,0,0-.087.044,55.472,55.472,0,0,0,6.481.087h6.5l.029,6.2h-2.525Z" transform="translate(-3928.5 -2821.04)"/><path class="a" d="M5293,4864.725l.657.058c.744,1.227,2.263,5.154,2.817,5.855.569.729,1.271.657,2.277.832-.029-.029-.058-.116-.073-.087l-.613-.671c-1.022-1.4-.964-1.986-.336-2.745a9.991,9.991,0,0,0-.934-2.131c-1.562.131-1.184-.672-1.9-1.446A2.375,2.375,0,0,0,5293,4864.725Z" transform="translate(-5252.879 -4817.716)"/><path class="a" d="M3147,4694.891a49.366,49.366,0,0,0,3.285,5.65l1.635-1.1-3.11-5.446a6.455,6.455,0,0,0-1.8.891Z" transform="translate(-3138.208 -4649.868)"/><path class="a" d="M4662.825,5225.5c1.708-.16,1.767-.029,2.671-.935a18.453,18.453,0,0,0,1.752-1.81,9.4,9.4,0,0,0-1.665-1.752,14.047,14.047,0,0,0-1.811,1.708c-.8.788-.992,1.109-.963,2.789Z" transform="translate(-4631.886 -5169.174)"/><path class="a" d="M4293.161,4689.45a1.708,1.708,0,0,0,.89-.861c-1.489-2.044-2.6-1.65-4.963-1.65a5.093,5.093,0,0,0-2.088.175,17.009,17.009,0,0,0,4.219.044,4.928,4.928,0,0,0,1.007,1.051C4293.277,4689.128,4293.219,4688.837,4293.161,4689.45Z" transform="translate(-4261.565 -4642.88)"/></g></svg>