<svg xmlns="http://www.w3.org/2000/svg" width="40.318" height="59.546" viewBox="0 0 40.318 59.546"><defs><style>.a{fill:#ef4e37;fill-rule:evenodd;}</style></defs><path class="a" d="M3631.078,2838.554l.041.041S3631.064,2838.568,3631.078,2838.554Zm-1.387,39.711h-.714a3.206,3.206,0,0,1-2.512-1.936l-4.31-9.224a50.714,50.714,0,0,1-2.059-4.777l.508-10.542c-.563-.137-.81-.316-1.3-.439l-2.169,6.424c-1.825,5.449-.728,2.635-1.386,7.193-.343,2.375-.7,10.638-1.222,11.585a3.174,3.174,0,0,1-2.388,1.716h-.823a3.132,3.132,0,0,1-2.443-1.784c-.645-1.414.137-5.422.247-7.811l.344-4.008c.165-1.153.344-2.883.371-3.994a10.667,10.667,0,0,1,.892-3.473c.178-.521.371-1.1.563-1.62l1.606-4.942c1.359,0,.742.083,1.62.426,2.32.906,4.242-.6,6.768-1.5.865-.3,1.647-.659,2.484-1,3.047-1.291,4.68-1.222,5.408-3.171l1.167-3.926a17.774,17.774,0,0,0,.741-2.594l-2.43,4.118c-1.139,2.128-.933,2.292-3.308,3.24-1.606.645-3.061,1.29-4.681,1.867l-2.279.92a8.827,8.827,0,0,1-2.429.782,2.561,2.561,0,0,1-2.087-3.83c.453-.947,1.73-1.277,2.828-1.675l5.49-2.224c.344-.124.756-.261,1.071-.385.988-.412,1.523-2.237,2.361-3.748a7.25,7.25,0,0,0,.961-2.1c0-2.114.37-4.873-3.061-4.942.439-.659.659-.371,1.016-1.895,1.634,0,4.448,1.469,6.013,2.142a17.448,17.448,0,0,1,2.731,1.345c3.089,2.183.467,6-.467,8.277-.892,2.21-5.875,12.848-6.095,14.125a56.9,56.9,0,0,0-.329,6.342l5.3,11.53a7.162,7.162,0,0,1,.851,2.5,3.167,3.167,0,0,1-2.842,3.061Z" transform="translate(-3598.46 -2818.774)"/><path class="a" d="M2881.933,2375.359a6.19,6.19,0,0,1-4.159-1.661c-3.487-2.759-2.512-10.858,4.447-10.858a6.281,6.281,0,0,1,6.109,6.259A6.2,6.2,0,0,1,2881.933,2375.359Zm-3.061-19.053v2.471a12,12,0,0,1-1.894.728c-1.949-2.91-2.9-1.249-4.324.178-.906.906-1.785,1.359-1.785,2.581,0,.521,1.291,1.441,1.606,1.894-.316.6-.453,1.167-.727,1.743h-2.471c-.206.3-.439.384-.439.727,0,6.4-.535,5.669,2.91,5.669l.508,1.235c.219.522.055-.069.219.508-.673,1-1.606.961-1.606,2.333,0,.426,1.469,1.73,1.84,2.087.6.6,1.551,1.839,2.238,1.839.92,0,1.537-1.167,2.183-1.606a10.885,10.885,0,0,1,1.743.728v2.471c1.016.673,1.949.439,3.789.439-.233-.988-1.208-2.9.933-4.887.865-.8,5.01-2.265,6.356-2.814,1.606-.645,1.88-.508,2.306-2.347a13.652,13.652,0,0,0,2-.041c.275-.082,1.057-.728,1.057-1.126,0-1.441.247-4.379-.288-4.955-.453-.494-1.785-.288-2.773-.288-.151-.659-.453-1.167-.576-1.743,1.414-2.114,2.91-1.236-.179-4.324-1.208-1.208-1.441-1.922-2.581-1.922-.522,0-1.441,1.29-1.895,1.606-.7-.165-.892-.508-1.743-.576,0-3.61.769-3.061-5.669-3.061-.343,0-.439.234-.728.439Z" transform="translate(-2868.808 -2352.093)"/><path class="a" d="M5001,2088.791c0,1.867.178,3.583,1.715,4.832,4.516,3.638,9.334-.3,9.334-3.514a5.569,5.569,0,0,0-1.564-4.543,5.17,5.17,0,0,0-3.445-1.565h-.906a5.41,5.41,0,0,0-5.134,4.8Z" transform="translate(-4971.732 -2084)"/><path class="a" d="M3474.523,2105.854c0,1.3-.055.617.151,1.016.371-.137.165-.055.385-.343a2.644,2.644,0,0,1,1.414-1.057,21.516,21.516,0,0,1,3.28-.055c-.384-1.441-3.61-3.171-5.024-.521a1.759,1.759,0,0,0-.206.947Z" transform="translate(-3466.202 -2103.246)"/></svg>