<svg id="Layer_1" data-name="Layer 1" xmlns="http://www.w3.org/2000/svg" viewBox="0 0 2598.02 705.02"><defs><style>.cls-1{fill:#1f0065;}.cls-2{fill:none;stroke:#000;stroke-miterlimit:10;stroke-width:6px;}.cls-3{fill:#fff;}</style></defs><title>Gotraining Live</title><path d="M599.31,652c-7.16-5.18-14.91-9.71-21.39-15.64-51.6-47.22-113.53-57.71-180.18-50.71-46.88,4.92-86.65,24.93-121.56,56.72-32.12,29.26-81.43,31.43-118.26,7.76-36.41-23.41-54-70.24-41.65-111.14,21.83-72.54,106.9-98.17,162.42-46.62,79.81,74.09,203.86,68.32,272.07,24.94,12.2-7.75,23.24-17.41,34.39-26.7,35.82-29.86,78.58-32.48,119.47-7,36.17,22.54,53.34,64.36,41.92,107.09C726.91,664.12,649,684.67,599.31,652Z"/><path d="M599.31,207.8c-7.16-5.19-14.91-9.72-21.39-15.65-51.6-47.22-113.53-57.7-180.18-50.71-46.88,4.93-86.65,24.93-121.56,56.72-32.12,29.26-81.43,31.44-118.26,7.76-36.41-23.4-54-70.24-41.65-111.14C138.1,22.25,223.17-3.38,278.69,48.16c79.81,74.09,203.86,68.32,272.07,25C563,65.35,574,55.7,585.15,46.41c35.82-29.86,78.58-32.49,119.47-7,36.17,22.54,53.34,64.36,41.92,107.09C726.91,219.94,649,240.5,599.31,207.8Z"/><path d="M830.57,433.68c-7.16-5.18-14.91-9.71-21.39-15.64C757.59,370.82,695.65,360.33,629,367.33c-46.88,4.92-86.65,24.93-121.56,56.72-32.12,29.26-81.43,31.43-118.26,7.76-36.41-23.41-54-70.24-41.65-111.14,21.83-72.54,106.9-98.17,162.42-46.62C589.76,348.14,713.81,342.37,782,299c12.19-7.75,23.23-17.41,34.38-26.7,35.82-29.85,78.59-32.48,119.47-7,36.17,22.54,53.35,64.36,41.93,107.09C958.17,445.83,880.21,466.38,830.57,433.68Z"/><path d="M127.43,512.6c5.18-7.16,9.71-14.9,15.64-21.38,47.22-51.6,57.71-113.54,50.71-180.19-4.92-46.87-24.93-86.64-56.72-121.55-29.26-32.13-31.43-81.43-7.76-118.27,23.41-36.41,70.24-54,111.14-41.65C313,51.4,338.61,136.46,287.06,192,213,271.8,218.74,395.85,262.12,464.06c7.75,12.19,17.41,23.24,26.7,34.38,29.86,35.83,32.48,78.59,7,119.47-22.54,36.17-64.36,53.35-107.09,41.93C115.28,640.2,94.73,562.24,127.43,512.6Z"/><path class="cls-1" d="M1401.77,369.76a69.18,69.18,0,0,1-15,23.61A63.91,63.91,0,0,1,1364.43,408a75.12,75.12,0,0,1-27.67,5,79.3,79.3,0,0,1-29.63-5.43,66.44,66.44,0,0,1-23.35-15.42,71.32,71.32,0,0,1-15.22-23.81,81.56,81.56,0,0,1-5.5-30.43,77.14,77.14,0,0,1,5.79-30.43,70.81,70.81,0,0,1,15.71-23.31,68.92,68.92,0,0,1,23.26-14.92,76.88,76.88,0,0,1,28.35-5.24q19.17,0,32.7,6.62a76.94,76.94,0,0,1,23,16.9l-19.56,19.16a45.06,45.06,0,0,0-15.9-11.16,51.88,51.88,0,0,0-20.26-3.85,37.82,37.82,0,0,0-16.79,3.75A42.58,42.58,0,0,0,1306,305.54a46.52,46.52,0,0,0-8.79,14.72,49.71,49.71,0,0,0-3.17,17.68,51.88,51.88,0,0,0,3.17,18.08,47.4,47.4,0,0,0,8.89,15.12,43.43,43.43,0,0,0,13.53,10.37,38.05,38.05,0,0,0,17.09,3.86q13,0,22.23-5.14a29.77,29.77,0,0,0,13.34-15.61h-36.75V337.94h71.73Q1407.31,355.73,1401.77,369.76Z"/><path class="cls-1" d="M1570.72,337.94a80.29,80.29,0,0,1-5.34,29.35,71.56,71.56,0,0,1-15.11,23.91,70.28,70.28,0,0,1-23.52,16,77.5,77.5,0,0,1-30.53,5.83,75.57,75.57,0,0,1-30.43-5.93,69.8,69.8,0,0,1-23.31-16.2,73.54,73.54,0,0,1-15-23.91,78.93,78.93,0,0,1-5.34-29.05,77.93,77.93,0,0,1,5.34-29,69.22,69.22,0,0,1,38.63-39.13,78.53,78.53,0,0,1,30.53-5.73,81,81,0,0,1,30.53,5.54,68.36,68.36,0,0,1,23.41,15.31,67,67,0,0,1,14.92,23.41A82,82,0,0,1,1570.72,337.94Z"/><path class="cls-1" d="M1645.8,293.09V410.66h-31.62V293.09h-28.65V266.41h88.13v26.68Z"/><path class="cls-1" d="M1767.12,410.66,1727,342.49v68.17h-31.62V266.41h51.77a61,61,0,0,1,20.46,3.26,48,48,0,0,1,15.71,9,38.58,38.58,0,0,1,10,13.64,42.34,42.34,0,0,1,3.46,17.19q0,16.2-9,26.58a46.28,46.28,0,0,1-23.22,14.32l38.34,60.27Zm-2-101.17a14.9,14.9,0,0,0-5.24-12,19,19,0,0,0-12.75-4.44H1727v34.78h20.15q8.31,0,13.14-4.94T1765.15,309.49Z"/><path class="cls-1" d="M1911.36,410.66,1900.3,374.3h-43.87l-11.26,36.36h-33.39l51.57-144.25h30.43l52.36,144.25Zm-29.64-98.21q-1.38-4.33-2.17-7.7c-.39-1.32-.72-2.64-1-3.95-.26,1.18-.59,2.43-1,3.75-.27,1.06-.57,2.31-.89,3.75s-.7,2.84-1.09,4.15l-10.87,35.18h27.66Z"/><path class="cls-1" d="M1963.92,410.66V266.41h31.62V410.66Z"/><path class="cls-1" d="M2123.52,410.66l-63.76-84c-.53-.66-1-1.32-1.48-2a9,9,0,0,1-1.09-2l-1-2a13.54,13.54,0,0,0,.2,2.37c0,.66,0,1.42.1,2.28s.09,1.74.09,2.66v82.6h-31.41V266.41h27.32l63.76,83.19c.53.66,1,1.32,1.48,2a9.47,9.47,0,0,1,1.09,2l1,2a13.54,13.54,0,0,1-.2-2.37,11.83,11.83,0,0,1-.2-2.27V266.41h31.42V410.66Z"/><path class="cls-1" d="M2180.49,410.66V266.41h31.61V410.66Z"/><path class="cls-1" d="M2340.09,410.66l-63.76-84c-.53-.66-1-1.32-1.49-2a9.9,9.9,0,0,1-1.09-2l-1-2a14.58,14.58,0,0,0,.2,2.37c0,.66,0,1.42.1,2.28s.1,1.74.1,2.66v82.6h-31.42V266.41h27.32l63.77,83.19c.52.66,1,1.32,1.48,2a10.49,10.49,0,0,1,1.09,2l1,2a13.54,13.54,0,0,1-.2-2.37,11.83,11.83,0,0,1-.2-2.27V266.41h31.42V410.66Z"/><path class="cls-1" d="M2528.85,369.76a69.2,69.2,0,0,1-15,23.61A63.91,63.91,0,0,1,2491.5,408a75,75,0,0,1-27.66,5,79.39,79.39,0,0,1-29.64-5.43,66.44,66.44,0,0,1-23.35-15.42,71.48,71.48,0,0,1-15.22-23.81,81.56,81.56,0,0,1-5.5-30.43,77,77,0,0,1,5.8-30.43,70.63,70.63,0,0,1,15.7-23.31,68.92,68.92,0,0,1,23.26-14.92,76.88,76.88,0,0,1,28.35-5.24q19.17,0,32.71,6.62a77.2,77.2,0,0,1,23,16.9l-19.57,19.16a45.06,45.06,0,0,0-15.9-11.16,51.88,51.88,0,0,0-20.26-3.85,37.85,37.85,0,0,0-16.79,3.75,42.58,42.58,0,0,0-13.34,10.08,46.52,46.52,0,0,0-8.79,14.72,49.71,49.71,0,0,0-3.16,17.68,51.87,51.87,0,0,0,3.16,18.08,47.4,47.4,0,0,0,8.89,15.12,43.43,43.43,0,0,0,13.53,10.37,38.09,38.09,0,0,0,17.1,3.86q13,0,22.23-5.14a29.8,29.8,0,0,0,13.33-15.61h-36.75V337.94h71.73Q2534.38,355.73,2528.85,369.76Z"/><line class="cls-2" x1="1113.5" y1="34.04" x2="1113.5" y2="677.6"/><path class="cls-3" d="M1461.93,304.1c.16-12,7-16.2,17.58-10.26,15.16,8.51,30,17.54,45,26.35,5.24,3.08,10.54,6.07,15.67,9.33,4.13,2.62,8.12,5.71,7.77,11.28s-4.16,8.41-8.82,10.95c-14.51,7.91-28.78,16.29-43.23,24.33-6.17,3.43-12.42,6.79-18.89,9.63-7.72,3.38-14.45-1-14.57-9.41C1462.31,366.26,1461.74,318.11,1461.93,304.1Z"/></svg>