<svg xmlns="http://www.w3.org/2000/svg" width="48.535" height="48.41" viewBox="0 0 48.535 48.41"><defs><style>.a{fill:#ef4e37;fill-rule:evenodd;}</style></defs><path class="a" d="M3441,2896.24c.892,1.457,3.871,5.829,5.263,6.285,3.349,1.131,3,1.587,6.525,5.111l11.526,11.614c-.87,1.3-2.218,1.522-1.827,2.871a2.248,2.248,0,0,0,1.414,1.327c1.414.239.522-.479,1.957-.413.849,1.37-.282,2.044.631,3.654l12.788,12.94c3.045,2.371,4.98-1.283,6.416-2.5.957-.8,1.827-1.349,1.718-3.154-.087-1.435-1.414-2.414-2.11-3.11-1.805-1.805-3.415-3.393-5.2-5.2-1.74-1.761-3.328-3.284-5.045-5.046-1.088-1.109-1.326-1.609-3.458-1.479-2.85.174-.936-.718-1.023-2.7-2.74-2.523-2.218-.174-4.284.8-1.24-.761-9.939-9.678-11.635-11.418-4.045-4.11-3.828-2.936-5.024-6.633-.457-1.392-1.718-1.892-2.958-2.849a20.907,20.907,0,0,0-3.349-2.349l-2.306,2.283Z" transform="translate(-3439.621 -2892.001)"/><path class="a" d="M4447,2822.362l3.61,3.48c1.892-1.088,1.37-2.588,3.784-.935l4.415-4.328c1.109-1.152.848-1.457,2.719-1.218,7.829,1.066,12.244-6.133,10.286-11.483-2,.892-4.415,4.959-6.394,5.568-1.327-.326-4.328-3.327-4.654-4.654.565-1.936,4.742-4.458,5.567-6.416-6.872-1.479-12.483,3.023-11.483,10.287.261,1.935.479,1.022-2.892,4.393-1.131,1.131-4.35,3.958-4.958,5.263Z" transform="translate(-4423.742 -2802.094)"/><path class="a" d="M3384.223,3919.552c-.783-1.283-3.828-2.632-2.5-6.329a14.306,14.306,0,0,1,2.131-2.479,5.824,5.824,0,0,1,4.067-.3c1.24.478,3.893,3.131,2.784,6.22a15.972,15.972,0,0,1-2.11,2.458c-.935.674-2.958.435-4.349.457Zm15.659-13.2c-1.544-2.284-.326-1.827.892-3.741l-3.85-3.61c-1.044,1.153-6.785,7.568-8.2,7.59-1.805.022-2.327-.653-4.763-.022a8.655,8.655,0,0,0-4.806,13.267c3.044,4.632,10.722,5.111,14.027.217,2.5-3.719.936-7.329,1.588-8.5.478-.848,4.154-4.045,5.133-5.22Z" transform="translate(-3377.603 -3875.144)"/></svg>