<?xml version="1.0" standalone="no"?>
<!DOCTYPE svg PUBLIC "-//W3C//DTD SVG 20010904//EN"
 "http://www.w3.org/TR/2001/REC-SVG-20010904/DTD/svg10.dtd">
<svg version="1.0" xmlns="http://www.w3.org/2000/svg"
 width="300.000000pt" height="300.000000pt" viewBox="0 0 300.000000 300.000000"
 preserveAspectRatio="xMidYMid meet">

<g transform="translate(0.000000,300.000000) scale(0.100000,-0.100000)"
fill="#000000" stroke="none">
<path d="M0 1500 l0 -1500 1500 0 1500 0 0 1500 0 1500 -1500 0 -1500 0 0
-1500z m1522 903 l3 -38 130 -12 c426 -40 816 -212 1197 -529 65 -54 116 -99
114 -102 -2 -2 -36 8 -74 22 -215 77 -457 74 -619 -8 l-50 -25 -84 34 c-219
88 -428 84 -595 -9 l-43 -24 -88 44 c-108 54 -184 74 -283 74 -114 0 -206 -29
-316 -99 -18 -12 -26 -9 -75 28 -149 113 -386 113 -626 1 -46 -21 -83 -36 -83
-32 1 4 44 43 96 87 290 244 672 435 1009 505 55 11 160 25 233 32 l132 11 0
39 c0 49 18 50 22 1z m-303 -734 c64 -35 100 -35 81 1 -9 17 -8 20 8 20 25 0
46 -45 32 -69 -16 -31 -39 -32 -137 -6 -53 15 -102 24 -109 21 -15 -6 -19 -44
-6 -61 16 -23 61 -35 87 -23 21 10 29 9 43 -6 16 -16 16 -17 -6 -22 -21 -6
-22 -10 -23 -138 -1 -195 -12 -215 -96 -182 -58 23 -93 24 -154 6 -25 -7 -54
-10 -63 -7 -14 6 -12 11 16 36 33 29 33 30 33 119 0 82 -2 93 -24 116 -36 38
-84 35 -127 -8 -19 -19 -34 -41 -34 -49 0 -8 -12 -23 -26 -32 l-27 -17 6 32
c10 46 35 94 63 121 22 20 36 24 92 24 82 0 124 -23 152 -80 25 -51 25 -98 1
-150 l-18 -40 64 -2 63 -2 0 119 c0 110 -2 120 -21 134 -12 8 -18 19 -14 25 4
7 -3 11 -19 11 -29 0 -56 33 -56 68 0 13 14 37 31 54 28 28 34 30 80 25 28 -4
76 -20 108 -38z m-898 -125 c16 -15 20 -15 41 0 28 20 70 21 106 2 55 -28 72
-29 72 -7 0 12 4 21 9 21 18 0 33 -30 27 -55 -8 -30 -35 -33 -92 -9 -27 11
-35 12 -26 3 6 -7 12 -26 12 -41 0 -23 4 -28 25 -28 39 0 92 -26 110 -53 19
-29 22 -111 5 -131 -21 -26 -96 -49 -135 -42 -44 9 -41 27 6 39 74 19 92 76
40 128 -16 16 -34 29 -39 29 -5 0 -12 -32 -14 -72 -5 -62 -9 -75 -32 -95 -57
-49 -131 -39 -187 25 -27 30 -30 41 -26 75 6 43 40 87 69 87 27 0 25 73 -3
101 -17 17 -19 23 -8 30 19 12 20 11 40 -7z m1216 5 c89 -34 138 -159 99 -253
-20 -49 -80 -91 -129 -91 -23 0 -42 6 -45 13 -3 9 -9 9 -23 1 -63 -33 -134 27
-127 109 3 37 1 42 -17 42 -26 0 -45 18 -45 43 0 14 4 17 18 12 32 -14 70 -17
76 -6 5 7 1 9 -8 5 -35 -14 -7 58 40 103 30 28 43 33 84 33 27 0 61 -5 77 -11z
m194 -16 c40 -34 59 -79 59 -140 0 -69 -15 -115 -51 -151 -33 -34 -84 -43
-107 -20 -19 19 -14 26 15 30 40 4 58 47 58 141 0 76 -1 80 -32 107 -21 19
-38 27 -52 23 -23 -6 -54 14 -45 28 3 5 32 9 64 9 49 0 64 -4 91 -27z m179 12
c11 -13 15 -13 33 0 29 20 67 19 122 -5 26 -11 51 -20 57 -20 5 0 6 9 3 20 -8
27 10 26 29 -2 11 -15 12 -26 5 -40 -13 -23 -43 -23 -98 2 -24 11 -46 18 -48
16 -3 -2 5 -7 16 -11 16 -5 21 -15 21 -41 0 -30 3 -34 25 -34 74 0 136 -56
143 -130 6 -67 -11 -105 -63 -135 -36 -21 -54 -25 -129 -25 -89 0 -140 -13
-165 -44 -17 -21 -7 -33 14 -16 12 10 15 10 15 -2 0 -32 -63 -55 -72 -27 -3 8
-10 8 -27 -2 -20 -12 -24 -12 -37 6 -13 18 -12 20 7 27 12 5 39 22 61 40 53
42 100 57 180 58 82 0 95 5 113 41 36 69 2 179 -54 179 -7 0 -11 -24 -11 -61
0 -87 -22 -121 -88 -134 -78 -15 -152 43 -152 119 0 50 18 79 60 96 29 12 31
16 25 49 -3 20 -15 43 -25 52 -14 12 -16 19 -7 28 15 15 32 14 47 -4z m-1066
-167 c23 -33 21 -130 -2 -151 -30 -28 -75 -39 -106 -27 -33 12 -63 76 -48 100
8 13 5 16 -16 15 -19 0 -27 7 -33 28 -8 30 -6 31 20 18 13 -7 28 -3 57 14 51
32 107 33 128 3z m534 -360 c9 -9 15 -9 24 0 17 17 55 15 62 -4 4 -11 -1 -18
-14 -21 -19 -5 -20 -14 -20 -132 l0 -126 38 0 c20 0 46 -4 57 -8 19 -7 20 -3
17 129 -3 125 -5 137 -23 141 -10 3 -19 9 -19 14 0 16 32 23 51 11 11 -7 27
-8 41 -3 53 19 125 -30 154 -106 41 -108 -26 -243 -121 -243 -16 0 -58 10 -92
21 l-61 22 -51 -26 c-55 -29 -90 -34 -109 -15 -9 9 -6 14 11 22 21 11 22 18
25 155 2 136 2 143 -18 148 -20 5 -25 15 -13 26 11 11 48 8 61 -5z m685 -2
c123 -51 144 -238 36 -318 -35 -26 -92 -34 -111 -15 -10 10 -20 12 -29 6 -27
-17 -75 -10 -98 15 -29 30 -41 113 -20 127 10 6 5 9 -16 9 -35 0 -55 15 -55
42 0 21 7 22 40 4 21 -12 29 -12 62 5 20 10 46 19 57 19 11 0 25 9 31 20 6 11
23 26 38 34 l27 15 -37 1 c-49 0 -83 -16 -99 -49 -24 -46 -55 -57 -45 -15 24
94 125 140 219 100z m193 -17 c37 -34 54 -79 54 -144 0 -99 -49 -175 -113
-175 -32 0 -57 14 -57 33 0 4 5 5 10 2 23 -14 58 24 70 75 27 112 -6 200 -76
200 -35 0 -65 24 -42 34 7 3 39 4 70 3 45 -3 64 -9 84 -28z m126 20 c14 -8 23
-8 31 0 15 15 42 14 56 -3 10 -12 8 -17 -8 -26 -20 -10 -21 -20 -21 -135 0
-99 3 -125 14 -125 7 0 33 -3 57 -6 l44 -6 -3 128 c-2 116 -5 131 -23 146 -21
18 -18 38 6 38 7 0 20 -7 29 -15 9 -9 17 -11 21 -5 3 5 24 10 45 10 46 0 105
-45 126 -97 18 -42 18 -115 0 -156 -18 -45 -70 -87 -109 -88 l-32 -1 35 -10
c42 -11 60 -32 60 -68 0 -36 -31 -62 -72 -61 -84 4 -98 7 -98 19 0 47 62 76
104 48 28 -18 39 -11 25 15 -17 33 -61 23 -144 -33 -68 -46 -83 -52 -126 -51
-58 1 -89 23 -89 62 0 40 14 56 30 35 31 -36 59 -37 139 0 42 19 85 37 96 39
11 2 -13 9 -54 16 -72 13 -96 10 -158 -15 -10 -5 -13 30 -13 155 0 138 -2 161
-16 169 -19 11 -11 32 12 32 9 0 25 -5 36 -11z"/>
<path d="M368 1509 c-23 -13 -25 -79 -3 -79 11 0 15 11 15 39 0 22 5 42 13 44
6 3 8 6 2 6 -5 0 -18 -4 -27 -10z"/>
<path d="M344 1383 c-10 -16 -13 -16 -28 -4 -15 12 -19 12 -31 0 -7 -8 -17
-26 -20 -41 -13 -50 67 -102 103 -66 17 17 16 128 -1 128 -6 0 -17 -8 -23 -17z"/>
<path d="M1403 1500 c-21 -8 -43 -38 -43 -58 0 -19 69 4 90 31 22 27 53 36 65
17 8 -13 -46 -61 -63 -55 -7 2 -3 -8 8 -23 26 -35 35 -92 22 -131 -10 -29 -9
-31 14 -31 41 0 66 52 62 130 -5 91 -32 130 -91 129 -23 0 -52 -4 -64 -9z"/>
<path d="M1341 1353 c0 -43 22 -98 39 -98 21 0 41 45 35 80 -6 33 -20 45 -52
45 -19 0 -23 -5 -22 -27z"/>
<path d="M1947 1502 c-10 -10 -17 -32 -17 -49 0 -26 3 -30 19 -26 14 4 20 16
23 49 4 49 -1 53 -25 26z"/>
<path d="M1926 1378 c-6 -22 -7 -22 -20 -4 -21 27 -36 11 -36 -38 0 -64 47
-98 84 -60 11 10 16 34 16 70 0 46 -3 54 -19 54 -11 0 -21 -9 -25 -22z"/>
<path d="M734 1338 c-19 -8 -20 -15 -14 -45 11 -47 25 -61 48 -47 12 8 17 24
17 55 0 47 -12 56 -51 37z"/>
<path d="M1627 963 c-4 -3 -7 -61 -7 -129 0 -88 -3 -124 -12 -127 -10 -4 -10
-6 0 -6 7 -1 27 5 46 13 63 26 87 132 44 196 -26 37 -61 64 -71 53z"/>
<path d="M1568 713 c7 -3 16 -2 19 1 4 3 -2 6 -13 5 -11 0 -14 -3 -6 -6z"/>
<path d="M2034 963 c3 -6 -7 -25 -23 -41 -22 -22 -33 -26 -42 -18 -6 6 -1 -4
12 -22 18 -25 24 -47 24 -85 0 -29 -4 -59 -8 -68 -7 -13 -4 -16 17 -12 38 8
58 37 64 92 6 65 -3 110 -29 141 -11 14 -18 20 -15 13z"/>
<path d="M1865 803 c12 -82 31 -101 59 -61 34 48 11 108 -41 108 -25 0 -25 -1
-18 -47z"/>
<path d="M2628 840 c-3 -126 -2 -130 18 -130 21 0 53 29 73 67 18 34 13 104
-9 141 -16 26 -53 52 -75 52 -2 0 -5 -59 -7 -130z"/>
<path d="M2578 713 c6 -2 18 -2 25 0 6 3 1 5 -13 5 -14 0 -19 -2 -12 -5z"/>
</g>
</svg>
